<svg width="21" height="21" viewBox="0 0 21 21" fill="none" xmlns="http://www.w3.org/2000/svg">
<g clip-path="url(#clip0_125_490)">
<path d="M10.3936 1.35059C4.86855 1.35059 0.393555 5.75059 0.393555 11.1773C0.393555 15.5198 3.25855 19.2023 7.23105 20.5006C7.73105 20.5931 7.91439 20.2889 7.91439 20.0281C7.91439 19.7948 7.90605 19.1764 7.90189 18.3573C5.12022 18.9498 4.53355 17.0389 4.53355 17.0389C4.07855 15.9048 3.42105 15.6014 3.42105 15.6014C2.51522 14.9923 3.49105 15.0048 3.49105 15.0048C4.49522 15.0731 5.02272 16.0173 5.02272 16.0173C5.91439 17.5198 7.36355 17.0856 7.93522 16.8348C8.02522 16.1989 8.28272 15.7664 8.56855 15.5206C6.34772 15.2748 4.01355 14.4298 4.01355 10.6648C4.01355 9.59225 4.40105 8.71559 5.04272 8.02809C4.93022 7.77975 4.59272 6.78059 5.13022 5.42725C5.13022 5.42725 5.96772 5.16392 7.88022 6.43475C8.68022 6.21642 9.53022 6.10809 10.3802 6.10309C11.2302 6.10809 12.0802 6.21642 12.8802 6.43475C14.7802 5.16392 15.6177 5.42725 15.6177 5.42725C16.1552 6.78059 15.8177 7.77975 15.7177 8.02809C16.3552 8.71559 16.7427 9.59225 16.7427 10.6648C16.7427 14.4398 14.4052 15.2706 12.1802 15.5123C12.5302 15.8073 12.8552 16.4098 12.8552 17.3306C12.8552 18.6456 12.8427 19.7023 12.8427 20.0214C12.8427 20.2789 13.0177 20.5864 13.5302 20.4881C17.5311 19.1981 20.3936 15.5131 20.3936 11.1773C20.3936 5.75059 15.9161 1.35059 10.3936 1.35059Z" fill="#0E0E0E"/>
</g>
<defs>
<clipPath id="clip0_125_490">
<rect width="20" height="20" fill="white" transform="translate(0.393555 0.933594)"/>
</clipPath>
</defs>
</svg>
