<svg width="21" height="21" viewBox="0 0 21 21" fill="none" xmlns="http://www.w3.org/2000/svg">
<g clip-path="url(#clip0_125_486)">
<path d="M7.68519 15.6103V19.4753C7.68582 19.6067 7.72777 19.7345 7.8051 19.8407C7.88242 19.9469 7.99119 20.026 8.11601 20.067C8.24082 20.1079 8.37535 20.1085 8.50054 20.0687C8.62573 20.029 8.73523 19.9508 8.81352 19.8453L11.0744 16.7687L7.68519 15.6103ZM20.131 1.04949C20.0371 0.982617 19.9265 0.943021 19.8115 0.935079C19.6965 0.927137 19.5816 0.951159 19.4794 1.00449L0.729355 10.7962C0.621473 10.8532 0.532584 10.9404 0.473597 11.0473C0.41461 11.1541 0.38809 11.2758 0.397293 11.3975C0.406496 11.5191 0.451021 11.6355 0.525404 11.7322C0.599787 11.8289 0.700791 11.9018 0.816021 11.942L6.02852 13.7237L17.1294 4.23199L8.53935 14.5812L17.2752 17.567C17.3619 17.5961 17.4539 17.6059 17.5448 17.5958C17.6356 17.5856 17.7232 17.5557 17.8013 17.5082C17.8794 17.4606 17.9462 17.3966 17.997 17.3205C18.0477 17.2444 18.0812 17.1582 18.0952 17.0678L20.3869 1.65116C20.4038 1.53703 20.3889 1.42044 20.3438 1.31426C20.2986 1.20808 20.225 1.11645 20.131 1.04949Z" fill="#0E0E0E"/>
</g>
<defs>
<clipPath id="clip0_125_486">
<rect width="20" height="20" fill="white" transform="translate(0.393555 0.933594)"/>
</clipPath>
</defs>
</svg>
